<mxfile host="app.diagrams.net" agent="Mozilla/5.0 (Windows NT 10.0; Win64; x64) AppleWebKit/537.36 (KHTML, like Gecko) Chrome/134.0.0.0 Safari/537.36 Edg/134.0.0.0" version="26.1.0">
  <diagram name="第 1 页" id="xYbl_k9Ezs9PNRsfZ94o">
    <mxGraphModel dx="5630" dy="2458" grid="0" gridSize="10" guides="1" tooltips="1" connect="1" arrows="1" fold="1" page="0" pageScale="1" pageWidth="827" pageHeight="1169" math="0" shadow="0">
      <root>
        <mxCell id="0" />
        <mxCell id="1" parent="0" />
        <mxCell id="AnunHyrTY3Pm7SSnpfB9-1" value="&lt;div style=&quot;line-height: 100%;&quot;&gt;&lt;font style=&quot;line-height: 100%; font-size: 54px;&quot;&gt;- 2025-03-09 14:23:45 &lt;font style=&quot;color: rgb(151, 208, 119);&quot;&gt;[INFO]&lt;/font&gt; User login successful - UserID: 12345, IP: 192.168.1.1, Method: POST, URL: /api/login, Status Code: 200&lt;/font&gt;&lt;div&gt;&lt;font style=&quot;font-size: 54px;&quot;&gt;&lt;br&gt;&lt;/font&gt;&lt;div&gt;&lt;font style=&quot;line-height: 100%; font-size: 54px;&quot;&gt;- 2025-03-09 14:24:10 &lt;font style=&quot;color: rgb(255, 217, 102);&quot;&gt;[WARN]&lt;/font&gt; Invalid password attempt - UserID: 67890, IP: 192.168.1.2, Method: POST, URL: /api/login, Status Code: 401&lt;/font&gt;&lt;/div&gt;&lt;div&gt;&lt;font style=&quot;font-size: 54px;&quot;&gt;&lt;br&gt;&lt;/font&gt;&lt;/div&gt;&lt;div&gt;&lt;font style=&quot;line-height: 100%; font-size: 54px;&quot;&gt;- 2025-03-09 14:25:00 &lt;font style=&quot;color: rgb(234, 107, 102);&quot;&gt;[ERROR]&lt;/font&gt; Database connection timeout - Query: SELECT * FROM users WHERE id = 12345, Error: Timeout after 30 seconds&lt;/font&gt;&lt;/div&gt;&lt;/div&gt;&lt;/div&gt;" style="rounded=0;whiteSpace=wrap;html=1;strokeWidth=4;align=left;" vertex="1" parent="1">
          <mxGeometry x="-559" y="416" width="1873" height="458" as="geometry" />
        </mxCell>
      </root>
    </mxGraphModel>
  </diagram>
</mxfile>
